# xmcd
#
# Track frame offsets: 
#        150
#        11784
#        25386
#        38130
#        51103
#        65169
#        78352
#        92090
#        104976
#        119811
#        133429
#        146432
#        158819
#        173245
#        188628
#        202776
#        217073
#        232469
#        248957
#        262999
#        276525
#        290675
#        303836
#        317878
#
# Disc length: 4424 seconds
#
# Revision: 0
# Processed by: cddbd v1.5.2PL0 Copyright (c) Steve Scherf et al.
# Submitted via: ExactAudioCopyFreeDBPlugin 1.0
#
DISCID=80114618
DTITLE=Coot Grant and Kid Wilson - Complete Recorded Works Vol. 2 (192
DTITLE=8-1931)
DYEAR=1997
DGENRE=Blues
TTITLE0=Stevedore Blues
TTITLE1=Uncle Joe
TTITLE2=Can I Get Some of That
TTITLE3=Big Trunk Blues
TTITLE4=Ain't Going to Give You None
TTITLE5=Can You Do That to Me
TTITLE6=Get Your Mind out of the Gutter
TTITLE7=The Gin Done Done It
TTITLE8=Do It Right
TTITLE9=Old Age Is Creeping upon You
TTITLE10=Our Family Doctor
TTITLE11=My Friend John
TTITLE12=On Our Turpentine Farm
TTITLE13=You Rascal You
TTITLE14=Dem Socks Dat My Pappy Wore
TTITLE15=Deceiving Man Blues
TTITLE16=Get Off with Me
TTITLE17=Hard Times
TTITLE18=You'se My Friend
TTITLE19=Rockin' Chair Mary
TTITLE20=She Shake's a Mean Ash Can
TTITLE21=Honey You Done Gone Too Far
TTITLE22=Boop-Poop-A-Doop
TTITLE23=You Need a Woman Like Me
EXTD=
EXTT0=
EXTT1=
EXTT2=
EXTT3=
EXTT4=
EXTT5=
EXTT6=
EXTT7=
EXTT8=
EXTT9=
EXTT10=
EXTT11=
EXTT12=
EXTT13=
EXTT14=
EXTT15=
EXTT16=
EXTT17=
EXTT18=
EXTT19=
EXTT20=
EXTT21=
EXTT22=
EXTT23=
PLAYORDER=
